<svg xmlns="http://www.w3.org/2000/svg" xmlns:xlink="http://www.w3.org/1999/xlink" viewBox="0,0,256,256" width="80px" height="80px" fill-rule="nonzero"><g fill="#f7c400" fill-rule="nonzero" stroke="none" stroke-width="1" stroke-linecap="butt" stroke-linejoin="miter" stroke-miterlimit="10" stroke-dasharray="" stroke-dashoffset="0" font-family="none" font-weight="none" font-size="none" text-anchor="none" style="mix-blend-mode: normal"><g transform="scale(3.2,3.2)"><path d="M52.56445,7.64648c-0.2028,-0.00449 -0.40471,0.00722 -0.60547,0.0332c-0.80302,0.10393 -1.57475,0.45013 -2.19727,1.02344l-25.16602,23.1875l-8.48242,-6.52539c0,-0.00065 0,-0.0013 0,-0.00195c-1.25632,-0.96571 -3.07584,-0.77677 -4.10742,0.42773l-3.51758,4.10156c-1.0406,1.21354 -0.93607,3.05894 0.23242,4.14844c0.00324,0.00262 0.00649,0.00523 0.00977,0.00781l6.65625,6.04688l-6.58203,5.85156c-1.2144,1.0788 -1.34301,2.96165 -0.28516,4.19531l3.48633,4.06641c1.03158,1.2045 2.8511,1.39345 4.10742,0.42773l8.27539,-6.36328l25.37891,23.05273c1.24529,1.13087 3.07433,1.36057 4.56055,0.57422l13.54297,-7.16992c1.3076,-0.69241 2.12695,-2.05572 2.12695,-3.53516v-42.38867c0,-1.47944 -0.81936,-2.84274 -2.12695,-3.53516l-13.52734,-7.16211c-0.56076,-0.29684 -1.17089,-0.44942 -1.7793,-0.46289zM52.21484,9.66016c0.40048,-0.05182 0.81704,0.01759 1.19336,0.2168l13.52734,7.16211c0.6564,0.34759 1.0625,1.02501 1.0625,1.76758v42.38867c0,0.74256 -0.4061,1.41999 -1.0625,1.76758l-13.54297,7.16992c-0.74698,0.39522 -1.65266,0.28043 -2.2793,-0.28711l-0.00195,-0.00195l-41.0293,-37.26953c-0.39622,-0.37271 -0.42858,-0.96565 -0.07422,-1.37891l3.51563,-4.10352c0.00065,0 0.0013,0 0.00195,0c0.35198,-0.41098 0.93766,-0.47146 1.36719,-0.14258l9.02344,6.94141c0.0013,0.00131 0.0026,0.00261 0.00391,0.00391c0.07226,0.07574 0.15596,0.13967 0.24805,0.18945l8.59375,6.61133c0.07211,0.07644 0.15582,0.14103 0.24805,0.19141c0.00195,0.00066 0.0039,0.00131 0.00586,0.00195l19.375,14.9043c0.30204,0.23203 0.70965,0.27237 1.0513,0.10403c0.34165,-0.16834 0.55803,-0.51612 0.55808,-0.897v-30c-0.00004,-0.38087 -0.21642,-0.72866 -0.55808,-0.897c-0.34165,-0.16834 -0.74926,-0.128 -1.0513,0.10403l-18.89062,14.53125l-7.29492,-5.61133l24.91211,-22.95312c0.31348,-0.2887 0.69718,-0.46185 1.09766,-0.51367zM53,12c-0.55,0 -1,0.44023 -1,0.99023c0,0.56 0.45,1.00977 1,1.00977c0.55,0 1,-0.44977 1,-1.00977c0,-0.55 -0.45,-0.99023 -1,-0.99023zM53,16c-0.55,0 -1,0.45 -1,1c0,0.551 0.45,1 1,1c0.55,0 1,-0.449 1,-1c0,-0.55 -0.45,-1 -1,-1zM53,20c-0.55,0 -1,0.43828 -1,0.98828c0,0.561 0.45,1.01172 1,1.01172c0.55,0 1,-0.45072 1,-1.01172c0,-0.55 -0.45,-0.98828 -1,-0.98828zM52,27.03125v25.9375l-16.85937,-12.96875zM16.87695,41.44922l6.00781,5.45703l-7.99219,6.14453c-0.42953,0.32889 -1.01521,0.2684 -1.36719,-0.14258c-0.00065,0 -0.0013,0 -0.00195,0l-3.48633,-4.06836c-0.36215,-0.42234 -0.3199,-1.02729 0.0957,-1.39648zM53,58c-0.55,0 -1,0.44023 -1,0.99023c0,0.56 0.45,1.00977 1,1.00977c0.55,0 1,-0.44977 1,-1.00977c0,-0.55 -0.45,-0.99023 -1,-0.99023zM53,62c-0.55,0 -1,0.45 -1,1c0,0.551 0.45,1 1,1c0.55,0 1,-0.449 1,-1c0,-0.55 -0.45,-1 -1,-1zM53,66c-0.55,0 -1,0.43828 -1,0.98828c0,0.561 0.45,1.01172 1,1.01172c0.55,0 1,-0.45072 1,-1.01172c0,-0.55 -0.45,-0.98828 -1,-0.98828z"></path></g></g></svg>